<svg width="163" height="19" viewBox="0 0 163 19" fill="none" xmlns="http://www.w3.org/2000/svg">
<g clip-path="url(#clip0_631_1011)">
<path fill-rule="evenodd" clip-rule="evenodd" d="M107.154 9.2297C107.154 5.64152 104.769 3.49863 101.191 3.48267C97.5671 3.48267 95.228 5.84603 95.228 9.1978C95.228 12.8019 97.6131 14.9455 101.191 14.9455C104.816 14.9455 107.154 12.5793 107.154 9.2297ZM105.056 9.21375C105.056 11.5474 103.576 13.1196 101.207 13.1196V13.1174C98.6627 13.1014 97.3266 11.3871 97.3266 9.21375C97.3266 6.89604 98.7913 5.3239 101.176 5.30793C103.721 5.3239 105.056 7.03819 105.056 9.21375Z" fill="#FF0D65"/>
<path fill-rule="evenodd" clip-rule="evenodd" d="M131.276 9.2297C131.276 5.64152 128.891 3.49863 125.313 3.48267C121.688 3.48267 119.351 5.84603 119.35 9.1978C119.35 12.8019 121.735 14.9455 125.313 14.9455C128.938 14.9455 131.276 12.5793 131.276 9.2297ZM129.179 9.21375C129.179 11.5474 127.698 13.1196 125.329 13.1196L125.329 13.1174C122.785 13.1014 121.449 11.3871 121.449 9.21375C121.449 6.89604 122.913 5.3239 125.299 5.30793C127.842 5.3239 129.179 7.03819 129.179 9.21375Z" fill="#FF0D65"/>
<path fill-rule="evenodd" clip-rule="evenodd" d="M133.36 14.7686V3.65527H138.194C140.675 3.65527 141.947 4.57552 141.947 6.41749C141.947 7.68727 141.438 8.5292 140.293 8.97374C141.661 9.21159 142.281 10.0847 142.281 11.5292C142.281 13.8317 140.627 14.7686 137.923 14.7686H133.36ZM137.908 8.3544C139.164 8.3544 139.959 7.79897 139.959 6.84603C139.959 5.957 139.37 5.48054 137.956 5.48054H135.348V8.3544H137.908ZM138.053 12.9426C139.578 12.9426 140.279 12.4502 140.279 11.3864C140.279 10.3226 139.484 9.90992 138.085 9.90992H135.35V12.9426H138.053Z" fill="#FF0D65"/>
<path fill-rule="evenodd" clip-rule="evenodd" d="M148.037 7.11583H146.526V3.65527H144.539V14.7686H148.056C151.299 14.7686 153.049 13.4662 153.049 10.8788C153.049 8.37041 151.567 7.11583 148.037 7.11583ZM146.526 12.9426V8.94179H148.212C150.152 8.94179 150.994 9.46544 150.994 10.8309C150.994 12.3393 150.041 12.9426 148.18 12.9426H146.526Z" fill="#FF0D65"/>
<path d="M157.117 9.95783H162.237L162.24 8.13181H157.119V5.48054H162.828V3.65527H155.129V14.7686H163V12.9426H157.117V9.95783Z" fill="#FF0D65"/>
<path fill-rule="evenodd" clip-rule="evenodd" d="M111.222 11.3073V14.7686H109.234V3.65527H112.939C116.452 3.65527 117.95 4.90911 117.95 7.41747C117.95 10.0057 116.201 11.3073 112.939 11.3073H111.222ZM111.222 5.48054V9.48133H113.082C114.927 9.48133 115.881 8.87799 115.881 7.37037C115.881 6.00485 115.055 5.48054 113.114 5.48054H111.222Z" fill="#FF0D65"/>
<path fill-rule="evenodd" clip-rule="evenodd" d="M83.9536 12.9426C84.5893 11.4342 85.0504 9.33848 85.0987 5.957L85.1301 3.65527H92.9536V12.9426H94.2413V16.8325H92.3813V14.7686H84.6051V16.8325H82.7451V12.9426H83.9536ZM85.8939 12.9426H90.9655V5.48054H86.9435V6.00485C86.8795 8.90989 86.5273 11.1964 85.8939 12.9426Z" fill="#FF0D65"/>
<path d="M77.0205 3.49634C75.2555 3.49634 73.9678 4.01993 73.3315 4.48039L73.3298 7.24265C73.9824 6.25851 75.3341 5.29045 77.0188 5.32161C78.1959 5.35351 79.118 5.76612 79.118 6.79805C79.118 7.62403 78.6249 8.30648 77.194 8.30648H75.5233V9.94174H77.2092C78.9422 9.94174 79.674 10.4022 79.674 11.3863C79.674 12.5139 78.5929 13.0854 77.2412 13.1013C75.1891 13.1173 73.7425 12.2282 73.0591 11.1006V13.5459C73.6505 14.2123 75.1891 14.9433 77.2092 14.9273C80.199 14.9114 81.7411 13.4349 81.7411 11.5139C81.7411 10.0527 80.9162 9.16361 79.1989 8.90981C80.4872 8.44932 81.1706 7.59213 81.1706 6.29046C81.1706 4.33755 79.5168 3.51231 77.0205 3.49634Z" fill="#FF0D65"/>
<path d="M30.1852 12.7809C30.9079 12.7849 31.62 12.6077 32.2552 12.2656L32.7867 11.9799L34.3383 13.1147C33.3145 14.2029 31.8057 14.801 30.0772 14.801C28.4248 14.801 26.9146 14.2188 25.8343 13.1702C24.7539 12.1216 24.1587 10.6643 24.1587 9.08098C24.1587 7.49771 24.7627 6.06194 25.8408 5.05083C26.9189 4.03971 28.4285 3.48267 30.0924 3.48267C31.6266 3.48267 32.968 3.94543 33.9721 4.82126L34.086 4.91699L32.3661 6.17496C31.7307 5.72388 30.9664 5.48657 30.1852 5.49775C28.0239 5.49775 26.4549 7.02921 26.4549 9.13931C26.4549 11.2494 28.0239 12.7809 30.1852 12.7809Z" fill="#21A038"/>
<path fill-rule="evenodd" clip-rule="evenodd" d="M41.6859 7.9236H38.7683V5.46087H43.4253L45.9354 3.625H36.3706V14.654H41.3734C44.1815 14.654 45.7918 13.391 45.7918 11.1895C45.7947 9.08375 44.3352 7.9236 41.6859 7.9236ZM41.2683 12.8174H38.7683V9.76021H41.2683C42.7909 9.76021 43.4985 10.2719 43.4985 11.2888C43.4985 12.328 42.7452 12.8174 41.2683 12.8174Z" fill="#21A038"/>
<path d="M56.4284 3.625L53.9183 5.46087H50.4251V8.15753H55.546V9.99414H50.4251V12.8174H56.4284V14.654H48.0273V3.625H56.4284Z" fill="#21A038"/>
<path fill-rule="evenodd" clip-rule="evenodd" d="M58.6606 3.625H63.2351C66.1534 3.625 67.965 5.13702 67.965 7.5717C67.965 10.0063 66.1516 11.5299 63.2334 11.5299H61.0585V14.654H58.6606V3.625ZM61.0585 9.69325H63.1833C64.7196 9.69325 65.5648 8.94194 65.5648 7.57746C65.5648 6.21297 64.7196 5.46087 63.1833 5.46087H61.0585V9.69325Z" fill="#21A038"/>
<path d="M16.574 3.58032C17.0106 4.14253 17.3841 4.75684 17.6826 5.41167L9.25269 11.5996L5.73047 9.40068V6.75536L9.25269 8.95424L16.574 3.58032Z" fill="#21A038"/>
<path d="M2.13746 9.21381C2.13746 9.09514 2.14037 8.97723 2.14618 8.86L0.0116248 8.75366C0.00435947 8.9063 0 9.05973 0 9.21381C0 11.7579 1.03531 14.0617 2.70997 15.7295L4.22334 14.2224C2.93592 12.9387 2.13746 11.1675 2.13746 9.21381Z" fill="url(#paint0_linear_631_1011)"/>
<path d="M9.25239 2.12801C9.37155 2.12801 9.48996 2.13235 9.60767 2.13814L9.7145 0.0115773C9.56116 0.00434167 9.40712 0 9.25239 0C6.69789 0 4.38462 1.03108 2.70996 2.6989L4.22333 4.20609C5.5122 2.92249 7.29074 2.12801 9.25239 2.12801Z" fill="url(#paint1_linear_631_1011)"/>
<path d="M9.25214 16.2998C9.13298 16.2998 9.01457 16.2969 8.89686 16.2911L8.79004 18.417C8.94332 18.4242 9.09735 18.4285 9.25214 18.4285C11.8066 18.4285 14.1199 17.3974 15.7946 15.7296L14.2812 14.2224C12.9923 15.5046 11.2137 16.2998 9.25214 16.2998Z" fill="url(#paint2_linear_631_1011)"/>
<path d="M13.2636 3.36458L15.0632 2.04408C13.475 0.765533 11.4538 0 9.25244 0V2.12874C10.7396 2.12801 12.1208 2.58531 13.2636 3.36458Z" fill="url(#paint3_linear_631_1011)"/>
<path d="M18.5045 9.2139C18.5045 8.65024 18.4536 8.09889 18.3563 7.56274L16.3648 9.02431C16.3663 9.08729 16.3677 9.15022 16.3677 9.21315C16.3677 11.2934 15.4625 13.1675 14.0239 14.4648L15.4603 16.0458C17.3297 14.3606 18.5045 11.9236 18.5045 9.2139Z" fill="#21A038"/>
<path d="M9.25227 16.2998C7.16348 16.2998 5.28175 15.3982 3.97908 13.9656L2.3916 15.396C4.08443 17.2585 6.53139 18.4285 9.25227 18.4285V16.2998Z" fill="url(#paint4_linear_631_1011)"/>
<path d="M4.48126 3.96234L3.0449 2.38135C1.17481 4.06726 0 6.50425 0 9.214H2.13746C2.13819 7.13304 3.04272 5.2597 4.48126 3.96234Z" fill="url(#paint5_linear_631_1011)"/>
</g>
<defs>
<linearGradient id="paint0_linear_631_1011" x1="3.14288" y1="15.4627" x2="0.824568" y2="8.73398" gradientUnits="userSpaceOnUse">
<stop offset="0.1444" stop-color="#F2E913"/>
<stop offset="0.3037" stop-color="#E7E518"/>
<stop offset="0.5823" stop-color="#CADB26"/>
<stop offset="0.891" stop-color="#A3CD39"/>
</linearGradient>
<linearGradient id="paint1_linear_631_1011" x1="3.32084" y1="3.07521" x2="9.32938" y2="0.776089" gradientUnits="userSpaceOnUse">
<stop offset="0.0592" stop-color="#0FA8E0"/>
<stop offset="0.5385" stop-color="#0099F9"/>
<stop offset="0.9234" stop-color="#0291EB"/>
</linearGradient>
<linearGradient id="paint2_linear_631_1011" x1="8.64899" y1="17.1438" x2="15.448" y2="15.6009" gradientUnits="userSpaceOnUse">
<stop offset="0.1226" stop-color="#A3CD39"/>
<stop offset="0.2846" stop-color="#86C339"/>
<stop offset="0.8693" stop-color="#21A038"/>
</linearGradient>
<linearGradient id="paint3_linear_631_1011" x1="8.80524" y1="0.712995" x2="14.6164" y2="2.51335" gradientUnits="userSpaceOnUse">
<stop offset="0.0566" stop-color="#0291EB"/>
<stop offset="0.79" stop-color="#0C8ACB"/>
</linearGradient>
<linearGradient id="paint4_linear_631_1011" x1="2.92773" y1="15.1366" x2="9.25139" y2="17.509" gradientUnits="userSpaceOnUse">
<stop offset="0.1324" stop-color="#F2E913"/>
<stop offset="0.2977" stop-color="#EBE716"/>
<stop offset="0.5306" stop-color="#D9E01F"/>
<stop offset="0.8023" stop-color="#BBD62D"/>
<stop offset="0.9829" stop-color="#A3CD39"/>
</linearGradient>
<linearGradient id="paint5_linear_631_1011" x1="0.796616" y1="9.47182" x2="3.31946" y2="2.88207" gradientUnits="userSpaceOnUse">
<stop offset="0.0698" stop-color="#A3CD39"/>
<stop offset="0.2599" stop-color="#81C55F"/>
<stop offset="0.9216" stop-color="#0FA8E0"/>
</linearGradient>
<clipPath id="clip0_631_1011">
<rect width="163" height="19" fill="white"/>
</clipPath>
</defs>
</svg>
