<svg width="1040" height="130" viewBox="0 0 1040 130" fill="none" xmlns="http://www.w3.org/2000/svg">
<path d="M99.1153 128.848C94.1339 128.848 89.7001 125.697 88.0669 120.995L81.8534 103.126H27.4508L21.2549 120.945C19.6085 125.678 15.1478 128.848 10.1336 128.848C3.10902 128.848 -1.77914 121.875 0.615789 115.28L37.7602 12.977C40.3401 5.87871 47.0865 1.15259 54.6434 1.15259C62.2076 1.15259 68.9606 5.8889 71.5339 12.9966L108.566 115.392C110.934 121.939 106.079 128.848 99.1146 128.848H99.1153ZM54.6507 25.7815L34.3895 83.422H74.9155L54.6507 25.7815Z" fill="#2B2A29"/>
<path d="M211.122 128.847C207.145 128.847 203.469 126.733 201.472 123.294L177.68 82.3288H152.852V118.356C152.852 124.151 148.152 128.847 142.357 128.847C136.558 128.847 131.858 124.151 131.858 118.356V12.4063C131.858 6.19135 136.902 1.15088 143.122 1.15088H182.973C194.412 1.15088 204.085 5.16463 211.997 13.1907C220.031 20.9744 224.049 30.642 224.049 42.1943C224.049 50.3455 221.704 57.7923 217.021 64.5435C212.332 71.291 206.218 76.1896 198.674 79.2269L219.333 114.546C223.039 120.883 218.465 128.846 211.123 128.846L211.122 128.847ZM182.972 20.8521H152.851V63.5386H182.972C188.569 63.5386 193.315 61.4728 197.213 57.3368C201.104 53.2022 203.055 48.156 203.055 42.195C203.055 36.2384 201.104 31.1878 197.213 27.054C193.315 22.9201 188.569 20.8521 182.972 20.8521Z" fill="#2B2A29"/>
<path d="M248.119 1.15088H321.141C326.685 1.15088 331.182 5.64197 331.182 11.1852C331.182 16.7249 326.685 21.2189 321.141 21.2189H295.22V118.359C295.22 124.15 290.52 128.846 284.721 128.846C278.926 128.846 274.226 124.15 274.226 118.359V21.2189H248.119C242.576 21.2189 238.079 16.7249 238.079 11.1852C238.079 5.64124 242.576 1.15088 248.119 1.15088Z" fill="#2B2A29"/>
<path d="M672.315 19.4098C659.889 6.8803 644.681 0.608643 626.695 0.608643C608.705 0.608643 593.441 6.87958 580.896 19.4098C568.473 31.8309 562.261 47.0243 562.261 64.9981C562.261 82.9749 568.473 98.2316 580.896 110.765C593.441 123.181 608.705 129.391 626.695 129.391C644.68 129.391 659.889 123.181 672.315 110.765C684.857 98.2316 691.129 82.9749 691.129 64.9981C691.129 47.0251 684.857 31.8309 672.315 19.4098ZM657.935 96.9277C649.533 105.327 639.121 109.524 626.695 109.524C614.385 109.524 603.912 105.328 595.276 96.9277C592.656 94.2375 590.494 91.3284 588.692 88.2467C587.87 86.3832 587.371 84.3552 587.371 82.1941C587.371 73.7911 594.186 66.9832 602.592 66.9832C606.88 66.9832 610.738 68.7667 613.504 71.6169C614.614 72.5665 615.289 73.3247 615.289 73.3247C615.289 73.3247 615.324 73.2687 615.332 73.2585C617.713 76.1218 621.26 77.9846 625.28 77.9846C632.454 77.9846 638.272 72.1706 638.272 65.0018C638.272 57.83 632.454 52.0153 625.28 52.0153C621.246 52.0153 617.686 53.8919 615.305 56.7713C615.301 56.7684 615.289 56.7451 615.289 56.7451C615.289 56.7451 615.09 56.9568 614.802 57.245C612.03 60.9909 607.612 63.4541 602.592 63.4541C594.186 63.4541 587.371 56.6425 587.371 48.2432C587.371 46.7806 587.642 45.3973 588.03 44.0569C588.212 43.2827 588.477 42.4619 588.775 41.6251C590.563 38.6359 592.697 35.8264 595.276 33.2491C603.797 24.737 614.268 20.478 626.695 20.478C639.12 20.478 649.533 24.737 657.935 33.2491C666.456 41.6484 670.715 52.2285 670.715 65.0003C670.715 77.775 666.456 88.4148 657.935 96.9298V96.9277Z" fill="#2B2A29"/>
<path d="M1030.12 127.673C1025.24 127.673 1020.88 124.578 1019.28 119.965L1013.18 102.424H959.782L953.741 119.793C952.102 124.512 947.651 127.673 942.653 127.673C935.821 127.673 931.065 120.891 933.393 114.471L969.902 13.9328C972.432 6.96692 979.056 2.32666 986.47 2.32666C993.896 2.32666 1000.53 6.97638 1003.05 13.956L1039.4 114.465C1041.73 120.892 1036.96 127.673 1030.12 127.673L1030.12 127.673ZM986.481 26.5016L966.591 83.0833H1006.37L986.482 26.5016H986.481Z" fill="#2B2A29"/>
<path d="M501.143 127.672C493.741 127.672 487.15 122.986 484.723 115.999L449.873 15.6791C447.604 9.14551 452.459 2.3252 459.38 2.3252C464.415 2.3252 468.882 5.54944 470.468 10.3243L501.142 102.781L532.005 10.2552C533.585 5.51887 538.018 2.3252 543.013 2.3252C549.881 2.3252 554.7 9.09312 552.445 15.5765L517.562 115.999C515.134 122.985 508.545 127.672 501.142 127.672H501.143Z" fill="#2B2A29"/>
<path d="M732.614 12.6222V107.975H773.829C779.27 107.975 783.685 112.383 783.685 117.824C783.685 123.264 779.27 127.673 773.829 127.673H729.925C720.03 127.673 712.009 119.657 712.009 109.765V12.6215C712.009 6.93562 716.622 2.3252 722.312 2.3252C728.001 2.3252 732.615 6.93562 732.615 12.6215L732.614 12.6222Z" fill="#2B2A29"/>
<path d="M866.61 62.8498H911.501C916.25 62.8498 920.098 66.6983 920.098 71.4448C920.098 88.6372 914.426 102.722 903.075 113.706C891.849 124.568 877.031 129.999 858.638 129.999C839.283 129.999 823.275 123.734 810.613 111.198C798.071 98.665 791.799 83.2627 791.799 65.0014C791.799 46.8552 798.071 31.5162 810.613 18.9802C823.275 6.32842 838.926 0 857.562 0C869.149 0 879.81 2.65812 889.547 7.96637C895.495 11.2132 900.631 15.1847 904.954 19.8803C909.573 24.9011 908.324 31.963 902.41 35.3655C898.542 37.5892 892.865 36.7713 889.888 33.4489C887.07 30.3018 883.639 27.6276 879.602 25.4235C873.031 21.8457 865.686 20.052 857.562 20.052C844.421 20.052 833.612 24.351 825.13 32.9453C816.646 41.6626 812.406 52.405 812.406 65.1768C812.406 78.0701 816.646 88.7572 825.13 97.2293C833.847 105.708 845.08 109.944 858.817 109.944C869.806 109.944 878.823 107.379 885.875 102.243C892.922 97.1129 897.403 90.1296 899.314 81.2937H866.61C861.513 81.2937 857.383 77.1671 857.383 72.0735C857.383 66.9799 861.513 62.8498 866.61 62.8498Z" fill="#2B2A29"/>
<path d="M403.445 65.001C403.445 72.2848 397.533 78.1897 390.244 78.1897C382.955 78.1897 377.046 72.2855 377.046 65.001C377.046 57.7135 382.955 51.8093 390.244 51.8093C397.533 51.8093 403.445 57.7135 403.445 65.001Z" fill="#2B2A29"/>
</svg>
