<svg width="283" height="36" viewBox="0 0 283 36" fill="none" xmlns="http://www.w3.org/2000/svg">
<path d="M26.9708 35.0614C25.6153 35.0614 24.4088 34.204 23.9644 32.9243L22.2736 28.0621H7.46979L5.78378 32.9108C5.33577 34.1987 4.12194 35.0614 2.75752 35.0614C0.846013 35.0614 -0.484132 33.1639 0.167566 31.3692L10.2751 3.53108C10.9772 1.59953 12.813 0.313477 14.8693 0.313477C16.9276 0.313477 18.7652 1.6023 19.4655 3.53642L29.5425 31.3999C30.1869 33.1813 28.8657 35.0614 26.9706 35.0614H26.9708ZM14.8713 7.01539L9.35791 22.7003H20.3857L14.8713 7.01539Z" fill="#2B2A29"/>
<path d="M57.4497 35.0613C56.3674 35.0613 55.367 34.4859 54.8236 33.5502L48.3495 22.403H41.5933V32.2065C41.5933 33.7834 40.3145 35.0613 38.7375 35.0613C37.1596 35.0613 35.8806 33.7834 35.8806 32.2065V3.37599C35.8806 1.68482 37.2532 0.313232 38.9457 0.313232H49.7898C52.9024 0.313232 55.5348 1.40543 57.6876 3.58944C59.8738 5.70752 60.9671 8.33823 60.9671 11.4818C60.9671 13.6998 60.3291 15.7262 59.0548 17.5633C57.7788 19.3994 56.1152 20.7324 54.0622 21.5589L59.6837 31.1697C60.6923 32.8942 59.4477 35.0609 57.4499 35.0609L57.4497 35.0613ZM49.7896 5.67425H41.5931V17.2899H49.7896C51.3125 17.2899 52.604 16.7277 53.6647 15.6023C54.7236 14.4772 55.2544 13.104 55.2544 11.482C55.2544 9.86109 54.7236 8.48673 53.6647 7.36186C52.604 6.23698 51.3125 5.67425 49.7896 5.67425Z" fill="#2B2A29"/>
<path d="M67.5171 0.313232H87.3875C88.8961 0.313232 90.1199 1.53533 90.1199 3.04374C90.1199 4.55116 88.8961 5.77405 87.3875 5.77405H80.3339V32.2073C80.3339 33.7832 79.0551 35.0611 77.4771 35.0611C75.9 35.0611 74.6212 33.7832 74.6212 32.2073V5.77405H67.5171C66.0087 5.77405 64.7849 4.55116 64.7849 3.04374C64.7849 1.53513 66.0087 0.313232 67.5171 0.313232Z" fill="#2B2A29"/>
<path d="M182.947 5.28161C179.566 1.87214 175.428 0.165527 170.533 0.165527C165.638 0.165527 161.484 1.87195 158.071 5.28161C154.69 8.66158 153 12.796 153 17.6869C153 22.5786 154.69 26.7302 158.071 30.1407C161.484 33.5195 165.638 35.2091 170.533 35.2091C175.427 35.2091 179.566 33.5195 182.947 30.1407C186.36 26.7302 188.067 22.5786 188.067 17.6869C188.067 12.7961 186.36 8.66158 182.947 5.28161ZM179.034 26.3754C176.748 28.661 173.915 29.8031 170.533 29.8031C167.184 29.8031 164.334 28.6612 161.984 26.3754C161.271 25.6434 160.682 24.8518 160.192 24.0132C159.969 23.5061 159.833 22.9543 159.833 22.3662C159.833 20.0796 161.687 18.2271 163.974 18.2271C165.141 18.2271 166.191 18.7124 166.944 19.488C167.246 19.7464 167.429 19.9527 167.429 19.9527C167.429 19.9527 167.439 19.9374 167.441 19.9347C168.089 20.7138 169.054 21.2207 170.148 21.2207C172.1 21.2207 173.684 19.6387 173.684 17.6879C173.684 15.7363 172.1 14.1541 170.148 14.1541C169.05 14.1541 168.082 14.6647 167.434 15.4482C167.433 15.4475 167.429 15.4411 167.429 15.4411C167.429 15.4411 167.375 15.4987 167.297 15.5771C166.543 16.5965 165.341 17.2667 163.974 17.2667C161.687 17.2667 159.833 15.4132 159.833 13.1276C159.833 12.7296 159.906 12.3532 160.012 11.9885C160.061 11.7778 160.134 11.5545 160.215 11.3267C160.701 10.5133 161.282 9.74883 161.984 9.04749C164.302 6.73122 167.152 5.57229 170.533 5.57229C173.914 5.57229 176.748 6.73122 179.034 9.04749C181.353 11.3331 182.512 14.2121 182.512 17.6875C182.512 21.1637 181.353 24.0589 179.034 26.376V26.3754Z" fill="#2B2A29"/>
<path d="M280.313 34.7419C278.982 34.7419 277.798 33.8997 277.361 32.6444L275.702 27.8714H261.171L259.528 32.5976C259.082 33.8817 257.87 34.7419 256.51 34.7419C254.651 34.7419 253.357 32.8964 253.991 31.1494L263.925 3.7915C264.614 1.89599 266.416 0.633301 268.434 0.633301C270.454 0.633301 272.259 1.89856 272.945 3.79784L282.837 31.1478C283.469 32.8966 282.173 34.7421 280.312 34.7421L280.313 34.7419ZM268.437 7.21166L263.024 22.6084H273.849L268.437 7.21166H268.437Z" fill="#2B2A29"/>
<path d="M136.369 34.7416C134.354 34.7416 132.561 33.4664 131.9 31.5651L122.417 4.26662C121.8 2.48872 123.121 0.632812 125.004 0.632812C126.374 0.632812 127.59 1.51018 128.021 2.80949L136.368 27.9684L144.766 2.79068C145.196 1.50186 146.403 0.632812 147.762 0.632812C149.631 0.632812 150.942 2.47447 150.329 4.2387L140.836 31.5651C140.176 33.4662 138.383 34.7416 136.368 34.7416H136.369Z" fill="#2B2A29"/>
<path d="M199.356 3.43455V29.3815H210.571C212.051 29.3815 213.253 30.581 213.253 32.0615C213.253 33.542 212.051 34.7415 210.571 34.7415H198.624C195.931 34.7415 193.749 32.5603 193.749 29.8686V3.43436C193.749 1.88714 195.004 0.632568 196.552 0.632568C198.1 0.632568 199.356 1.88714 199.356 3.43436L199.356 3.43455Z" fill="#2B2A29"/>
<path d="M235.818 17.1024H248.034C249.326 17.1024 250.373 18.1496 250.373 19.4412C250.373 24.1195 248.829 27.9523 245.741 30.9412C242.686 33.8969 238.654 35.3748 233.649 35.3748C228.382 35.3748 224.026 33.67 220.58 30.2587C217.168 26.8483 215.461 22.6571 215.461 17.6879C215.461 12.75 217.168 8.57604 220.58 5.16479C224.026 1.72206 228.285 0 233.356 0C236.509 0 239.41 0.723317 242.059 2.16777C243.678 3.05128 245.076 4.13199 246.252 5.40973C247.509 6.77597 247.169 8.69762 245.56 9.6235C244.507 10.2286 242.962 10.006 242.152 9.10195C241.385 8.24557 240.452 7.5179 239.353 6.91814C237.565 5.94454 235.566 5.45646 233.356 5.45646C229.78 5.45646 226.839 6.62628 224.531 8.96493C222.222 11.337 221.068 14.2602 221.068 17.7356C221.068 21.2441 222.222 24.1522 224.531 26.4576C226.903 28.7648 229.959 29.9175 233.697 29.9175C236.688 29.9175 239.141 29.2196 241.06 27.8219C242.978 26.4259 244.197 24.5256 244.717 22.1213H235.818C234.431 22.1213 233.307 20.9984 233.307 19.6123C233.307 18.2263 234.431 17.1024 235.818 17.1024Z" fill="#2B2A29"/>
<path d="M109.783 17.6878C109.783 19.6698 108.175 21.2767 106.191 21.2767C104.208 21.2767 102.6 19.67 102.6 17.6878C102.6 15.7048 104.208 14.0981 106.191 14.0981C108.175 14.0981 109.783 15.7048 109.783 17.6878Z" fill="#2B2A29"/>
</svg>
