<svg width="24" height="24" viewBox="0 0 24 24" fill="none" xmlns="http://www.w3.org/2000/svg">
<g opacity="0.5" clip-path="url(#clip0_32_2444)">
<path d="M21.0693 2.33691C20.4485 1.79191 17.9337 0.0399056 12.3333 0.0169056C12.3333 0.0169056 5.725 -0.362094 2.50587 2.46891C0.715258 4.18491 0.0881274 6.69791 0.0161274 9.81491C-0.0558726 12.9319 -0.136221 18.7739 5.73961 20.3619H5.74482L5.73961 22.7809C5.73961 22.7809 5.701 23.7609 6.373 23.9579C7.18482 24.2019 7.66482 23.4559 8.44221 22.6539C8.86795 22.2129 9.45439 21.5669 9.89995 21.0739C12.4534 21.3006 15.0284 21.1122 17.5163 20.5169L17.3598 20.5489C18.1716 20.2959 22.765 19.7329 23.508 13.8919C24.2843 7.86191 23.1386 4.05791 21.0693 2.33691ZM21.7497 13.4519C21.1163 18.3269 17.3953 18.6369 16.7107 18.8469C15.2165 19.2109 13.501 19.4189 11.7344 19.4189C11.2273 19.4189 10.7243 19.4019 10.2266 19.3679L10.2933 19.3719C10.2933 19.3719 7.74934 22.3109 6.95734 23.0749C6.69856 23.3229 6.41369 23.3029 6.41891 22.8079C6.41891 22.4849 6.43874 18.7899 6.43874 18.7899C1.46448 17.4679 1.75248 12.4919 1.81091 9.89291C1.86934 7.29391 2.37856 5.15791 3.89474 3.72391C6.6203 1.35691 12.2311 1.70791 12.2311 1.70791C16.9716 1.72691 19.2412 3.09591 19.7692 3.55491C21.516 4.98991 22.406 8.42191 21.7497 13.4509V13.4519ZM14.9556 9.66391V9.67791C14.9534 9.75578 14.9201 9.82987 14.8625 9.88489C14.805 9.93991 14.7276 9.97166 14.6463 9.97359C14.5651 9.97551 14.4861 9.94746 14.4258 9.89524C14.3655 9.84301 14.3284 9.77058 14.3222 9.69291V9.69191C14.3435 9.48312 14.3172 9.2724 14.2452 9.0743C14.1732 8.87619 14.0572 8.69541 13.9052 8.54444C13.7532 8.39347 13.5689 8.2759 13.3649 8.19984C13.1609 8.12378 12.9421 8.09105 12.7236 8.10391H12.7278C12.6467 8.09789 12.5711 8.06225 12.5167 8.00435C12.4622 7.94645 12.433 7.87072 12.4352 7.7928C12.4373 7.71489 12.4706 7.64073 12.5282 7.58567C12.5857 7.5306 12.6632 7.49882 12.7445 7.49691H12.7622H12.7612L12.8332 7.49591C13.1245 7.49581 13.4127 7.55311 13.68 7.66424C13.9472 7.77537 14.1878 7.93797 14.3867 8.14193C14.5856 8.34589 14.7387 8.58686 14.8364 8.84988C14.9341 9.1129 14.9743 9.39236 14.9546 9.67091V9.66491L14.9556 9.66391ZM15.948 10.1949C15.997 8.20691 14.701 6.65091 12.2405 6.47691C12.1978 6.47563 12.1558 6.4661 12.117 6.44889C12.0783 6.43168 12.0436 6.40715 12.0149 6.37677C11.9863 6.34638 11.9644 6.31077 11.9505 6.27207C11.9366 6.23337 11.9309 6.19237 11.934 6.15154C11.937 6.1107 11.9486 6.07088 11.9681 6.03445C11.9875 5.99801 12.0145 5.96573 12.0473 5.93952C12.0801 5.91331 12.1181 5.89373 12.159 5.88194C12.1999 5.87015 12.2429 5.86639 12.2853 5.87091H12.2843H12.302C12.886 5.87089 13.4637 5.98526 13.9999 6.20699C14.536 6.42873 15.0192 6.75315 15.4198 7.16033C15.8203 7.56752 16.1298 8.04887 16.3292 8.57484C16.5286 9.1008 16.6137 9.66028 16.5793 10.2189L16.5803 10.2079C16.5747 10.2854 16.5384 10.3579 16.4787 10.4106C16.4191 10.4632 16.3407 10.4919 16.2597 10.4909C16.1786 10.4899 16.101 10.4592 16.0429 10.405C15.9847 10.3509 15.9504 10.2775 15.9469 10.1999V10.1919L15.948 10.1949ZM18.2436 10.8239V10.8259C18.2394 10.9034 18.2044 10.9764 18.1458 11.03C18.0872 11.0836 18.0094 11.1137 17.9284 11.114C17.8474 11.1144 17.7693 11.0851 17.7102 11.0321C17.651 10.9791 17.6152 10.9064 17.6102 10.8289C17.5852 7.00691 14.9253 4.92591 11.702 4.90391C11.6605 4.90391 11.6194 4.89607 11.581 4.88084C11.5427 4.86561 11.5078 4.8433 11.4785 4.81516C11.4491 4.78702 11.4258 4.75362 11.4099 4.71686C11.394 4.6801 11.3859 4.6407 11.3859 4.60091C11.3859 4.56111 11.394 4.52171 11.4099 4.48495C11.4258 4.44819 11.4491 4.41479 11.4785 4.38665C11.5078 4.35852 11.5427 4.3362 11.581 4.32097C11.6194 4.30574 11.6605 4.29791 11.702 4.29791C15.3114 4.32191 18.2123 6.70891 18.2415 10.8229L18.2436 10.8239ZM17.6958 15.4219V15.4309C17.1678 16.3219 16.1796 17.3059 15.1622 16.9919L15.1528 16.9779C13.3389 16.3382 11.6386 15.4346 10.1118 14.2989L10.1546 14.3289C9.39478 13.7508 8.70555 13.0923 8.09995 12.3659L8.08013 12.3409C7.53179 11.6794 7.04241 10.9749 6.61717 10.2349L6.57543 10.1559C6.07232 9.36102 5.6552 8.51899 5.33056 7.64291L5.29926 7.54491C4.97161 6.56991 5.99317 5.62291 6.92813 5.11691H6.93752C7.12146 5.00407 7.34233 4.96015 7.55793 4.99354C7.77353 5.02693 7.96873 5.13529 8.10621 5.29791L8.10726 5.29991C8.10726 5.29991 8.71352 5.99291 8.97334 6.33591C9.21752 6.65491 9.54621 7.16591 9.7163 7.45091C9.84436 7.64565 9.89648 7.8775 9.86345 8.1055C9.83042 8.33349 9.71436 8.54297 9.53578 8.69691L9.53474 8.69791L8.9483 9.14791C8.85686 9.23248 8.78621 9.33549 8.74145 9.44947C8.69669 9.56345 8.67895 9.68554 8.68952 9.80691V9.80391C8.9799 10.7312 9.50398 11.5758 10.2155 12.2631C10.9271 12.9504 11.8042 13.4593 12.7695 13.7449L12.8133 13.7559C12.9394 13.7654 13.066 13.7482 13.1843 13.7055C13.3026 13.6629 13.4097 13.5957 13.4979 13.5089L13.9674 12.9469C14.1287 12.775 14.3484 12.6635 14.5874 12.6322C14.8264 12.6009 15.0693 12.6518 15.2728 12.7759L15.2686 12.7739C16.117 13.2369 16.8506 13.7459 17.5194 14.3229L17.508 14.3129C17.6776 14.4426 17.7906 14.6284 17.8245 14.8338C17.8585 15.0392 17.8111 15.2493 17.6916 15.4229L17.6937 15.4199L17.6958 15.4219Z" fill="#DD4492"/>
</g>
<defs>
<clipPath id="clip0_32_2444">
<rect width="24" height="24" fill="white"/>
</clipPath>
</defs>
</svg>
