<svg width="234" height="55" viewBox="0 0 234 55" fill="none" xmlns="http://www.w3.org/2000/svg">
<g clip-path="url(#clip0_384_1059)">
<path d="M19.6392 0.584961H13.2046C6.88347 0.584961 1.52276 5.39591 1.52276 14.7376C1.52276 20.3421 4.11969 24.475 8.74666 26.5114L0.113064 42.1358C-0.169304 42.6449 0.113065 43.0406 0.564425 43.0406H4.57105C4.90903 43.0406 5.13578 42.9272 5.24916 42.6449L13.0934 27.3029H15.9149V42.6449C15.9149 42.8139 16.0839 43.0406 16.3085 43.0406H19.8082C20.1462 43.0406 20.2596 42.8716 20.2596 42.5893V1.1497C20.2596 0.753953 20.0349 0.584961 19.6392 0.584961ZM15.9149 23.6813H13.5448C9.82051 23.6813 6.20963 20.9646 6.20963 14.1707C6.20963 7.09225 9.59591 4.20654 13.0378 4.20654H15.9171V23.6813H15.9149Z" fill="#FF0303"/>
<path d="M40.8532 14.6583H37.3535C37.0712 14.6583 36.9022 14.8851 36.9022 15.054V25.8674H30.412V15.054C30.412 14.7717 30.3008 14.6583 30.0184 14.6583H26.5187C26.2385 14.6583 26.0674 14.8273 26.0674 15.054V42.5678C26.0674 42.8501 26.1808 43.0191 26.461 43.0191H30.0184C30.243 43.0191 30.412 42.8501 30.412 42.5678V29.4334H36.9022V42.5678C36.9022 42.8501 37.0712 43.0191 37.3535 43.0191H40.8532C41.1355 43.0191 41.2468 42.7924 41.2468 42.5678V15.054C41.2482 15.0019 41.2391 14.9499 41.2198 14.9014C41.2006 14.8529 41.1717 14.8087 41.1349 14.7717C41.0981 14.7347 41.0541 14.7056 41.0057 14.6861C40.9573 14.6666 40.9054 14.6571 40.8532 14.6583Z" fill="black"/>
<path d="M120.741 41.2094L120.29 39.2841C120.234 39.1151 120.179 39.0574 120.008 39.0574C119.725 39.0574 118.202 39.6777 116.001 39.6777C111.712 39.6777 109.624 35.5471 109.624 28.9799C109.624 23.2042 111.374 17.4884 114.307 17.4884C115.098 17.4884 116.057 17.7151 117.58 19.1312C117.749 19.3002 117.862 19.358 118.031 19.358C118.202 19.358 118.371 19.2425 118.54 18.9601L120.063 16.4701C120.169 16.3204 120.228 16.1423 120.232 15.9589C120.232 15.7321 120.005 15.5631 119.668 15.3941C117.353 14.2048 115.774 13.978 114.418 13.978C109.115 13.978 104.995 20.3185 104.995 30.2248C104.995 38.7729 108.946 43.6972 114.589 43.6972C116.962 43.6972 119.501 42.5677 120.515 41.8297C120.613 41.7637 120.688 41.668 120.729 41.5565C120.77 41.445 120.774 41.3235 120.741 41.2094Z" fill="black"/>
<path d="M96.2147 27.4524L102.987 15.0539C103.101 14.885 103.043 14.6582 102.818 14.6582H99.4897C98.5292 14.6582 98.1912 14.9983 97.8532 15.7321L92.7728 26.3187C92.4904 26.9412 92.208 27.3369 91.9257 27.5081V15.0539C91.9257 14.8272 91.8123 14.6582 91.5877 14.6582H87.919C87.75 14.6582 87.5811 14.8272 87.5811 15.0539V42.6254C87.5811 42.7944 87.6944 43.0212 87.919 43.0212H91.5877C91.8144 43.0212 91.9257 42.8522 91.9257 42.6254V28.4151C92.1002 28.5469 92.2368 28.7225 92.3214 28.9242L98.7538 42.1698C99.0918 42.85 99.6009 43.019 100.335 43.019H103.946C104.172 43.019 104.228 42.7923 104.117 42.6233L96.2147 27.4524Z" fill="black"/>
<path d="M63.8789 39.4531H63.2007C62.3536 39.4531 62.129 39.1129 62.129 38.4348V15.0539C62.129 14.7716 62.0157 14.6582 61.7911 14.6582H50.5028C50.2204 14.6582 50.0514 14.8272 50.0514 15.0539V17.0926C50.0514 23.9421 49.6578 32.7725 46.0448 39.4531H44.8019C44.464 39.4531 44.3506 39.6242 44.3506 39.9066V48.1722C44.3506 48.4567 44.5773 48.568 44.7463 48.568H47.4545C48.0748 48.568 48.2995 48.1166 48.2995 47.7187V43.019H60.3771V48.1722C60.3756 48.2244 60.3848 48.2763 60.404 48.3249C60.4232 48.3734 60.4522 48.4175 60.489 48.4545C60.5258 48.4916 60.5697 48.5207 60.6182 48.5402C60.6666 48.5597 60.7185 48.5691 60.7707 48.568H63.65C63.988 48.568 64.3259 48.2856 64.3259 47.7187V39.9066C64.3281 39.6242 64.1591 39.4531 63.8789 39.4531ZM57.7823 39.4531H49.6001C52.4793 34.5287 53.6067 28.9798 54.0024 22.188C54.1038 20.869 54.1602 19.547 54.1714 18.2242H57.7823V39.4531Z" fill="black"/>
<path d="M75.3895 13.9805C69.2951 13.9805 66.5869 21.6793 66.5869 30.0562C66.5869 38.6042 70.4245 43.6996 76.0676 43.6996C78.8314 43.6996 81.2593 42.6258 82.5 41.8322C82.7246 41.7188 82.7803 41.5498 82.7246 41.323L82.2733 39.3978C82.2177 39.1732 82.1043 39.0598 81.8219 39.0598C81.5973 39.0598 79.9587 39.6802 77.6463 39.6802C73.3017 39.6802 71.2695 35.8896 71.2695 30.9075V29.5684C71.2695 29.5684 73.4707 29.8315 74.7692 29.8315H83.0091V27.4528C83.0091 18.678 79.9031 13.9805 75.3895 13.9805ZM74.7692 26.2656C73.4707 26.2656 71.4406 26.4902 71.4406 26.4902C71.4406 26.4902 71.4406 25.641 71.554 24.734C72.061 19.923 73.2461 17.4887 75.2227 17.4887C77.0302 17.4887 78.1576 19.9786 78.4399 24.3382C78.4955 25.2431 78.4955 26.2635 78.4955 26.2635H74.7692V26.2656Z" fill="black"/>
<path d="M136.095 0V19.1452H137.665L145.114 0H148.068L139.942 20.3143L148.314 43.0914H145.298L137.665 21.6076H136.095V43.0914H133.324V0H136.095ZM166.412 36.4426C166.412 38.5975 166.412 41.245 166.659 43.0909H164.196L163.95 39.8289H163.765C162.658 42.1065 160.749 43.5836 158.225 43.5836C154.593 43.5836 151.7 40.5053 151.7 35.4582C151.7 28.3173 157.056 24.9933 163.765 24.931V23.8238C163.765 18.7754 162.965 15.3896 158.656 15.3896C157.178 15.3896 155.64 15.9446 154.47 16.8057L153.731 14.7746C154.716 13.9121 156.993 13.051 159.21 13.051C163.212 13.051 166.413 15.3896 166.413 22.4691V36.4426H166.412ZM163.765 27.2082C161.488 27.2082 154.47 27.3934 154.47 35.2726C154.47 39.7047 156.624 41.245 158.594 41.245C161.118 41.245 163.088 39.2125 163.643 35.6429C163.765 34.9656 163.765 34.2882 163.765 33.7342V27.2082H163.765ZM173.612 22.6538C173.612 17.483 173.429 15.1439 173.367 13.5427H175.891L176.014 17.483H176.138C177.984 13.8502 180.385 13.0505 182.416 13.0505C186.726 13.0505 190.604 17.483 190.604 28.1935C190.604 39.459 186.109 43.5836 181.74 43.5836C178.722 43.5836 177.184 41.6753 176.384 39.8289H176.26V54.9105H173.613V22.6538H173.612ZM176.26 32.1953C176.26 32.9949 176.26 33.7956 176.384 34.5953C177.49 40.3211 180.262 41.245 181.8 41.245C186.416 41.245 187.833 35.0879 187.833 28.3168C187.833 21.8537 186.294 15.3891 181.677 15.3891C178.968 15.3891 176.567 19.021 176.322 22.531C176.26 23.3307 176.26 24.0699 176.26 24.8696V32.1953ZM208.947 13.5427V15.8813H202.113V43.0909H199.467V15.8813H192.634V13.5427H208.947ZM215.225 13.5427V24.6235C215.47 24.5626 216.64 24.4384 217.932 24.4384C223.535 24.4384 228.09 27.7009 228.09 33.6109C228.09 36.6282 226.982 38.9668 225.136 40.5676C223.042 42.414 220.15 43.3989 217.564 43.3989C215.901 43.3989 214.241 43.2151 212.578 42.9676V13.5427H215.225ZM215.225 40.8137C216.086 40.9975 216.764 41.0603 217.625 41.0603C221.935 41.0603 225.258 38.2276 225.258 33.7956C225.258 29.1779 221.81 26.716 217.379 26.716C216.518 26.716 215.901 26.7784 215.225 26.9012V40.8137ZM234 13.5427V43.0909H231.599V13.5427H234Z" fill="black"/>
</g>
<defs>
<clipPath id="clip0_384_1059">
<rect width="234" height="54.9105" fill="white"/>
</clipPath>
</defs>
</svg>
